<?xml version="1.0" encoding="utf-8"?>
<!-- Svg Vector Icons : http://www.onlinewebfonts.com/icon -->
<!DOCTYPE svg PUBLIC "-//W3C//DTD SVG 1.1//EN" "http://www.w3.org/Graphics/SVG/1.1/DTD/svg11.dtd">
<svg version="1.1" xmlns="http://www.w3.org/2000/svg" xmlns:xlink="http://www.w3.org/1999/xlink" x="0px" y="0px" viewBox="0 0 1000 1000" enable-background="new 0 0 1000 1000" xml:space="preserve">
<metadata> Svg Vector Icons : http://www.onlinewebfonts.com/icon </metadata>
<g><path d="M509.9,6.9l-1.2-0.6C511.2,9.1,511.2,7.8,509.9,6.9z"/><path d="M959.4,236.9c16.9,0,30.6-13.7,30.6-30.6V44.5c0-16.9-13.7-30.6-30.6-30.6H797.5c-16.9,0-30.6,13.7-30.6,30.6v50.3h-99.4c-3.1-0.5-6.2-0.5-9.4,0H233.1V44.5c0-16.9-13.7-30.6-30.6-30.6H40.6C23.7,13.9,10,27.6,10,44.5v161.8c0,16.9,13.7,30.6,30.6,30.6h50.3v533.9H40.6c-16.9,0-30.6,13.7-30.6,30.6v161.8c0,16.9,13.7,30.6,30.6,30.6h161.9c16.9,0,30.6-13.7,30.6-30.6v-50.3h533.8v50.3c0,16.9,13.7,30.6,30.6,30.6h161.9c16.9,0,30.6-13.7,30.6-30.6V801.4c0-16.9-13.7-30.6-30.6-30.6H909V341.2c0.1-1,0.1-2.1,0-3.1V236.9L959.4,236.9L959.4,236.9z M828.1,75.1h100.6v100.6H828.1V75.1z M152.2,452.3c1.8-1.2,3.5-2.5,5.1-4.1l292-292.1h139.3L152.2,592.4L152.2,452.3L152.2,452.3z M71.2,75.1h100.6v49.1c0,0.4,0,0.8,0,1.2c0,0.4,0,0.8,0,1.2v49.1H71.2V75.1L71.2,75.1z M202.5,236.9c16.9,0,30.6-13.7,30.6-30.6V156h129.6L152.2,366.6V236.9H202.5z M152.2,679l522.9-523h91.8v37.5L189.6,770.8h-37.5V679L152.2,679z M71.2,932.6V832h100.6v49.2c0,0.4,0,0.8,0,1.2c0,0.4,0,0.8,0,1.2v49.1L71.2,932.6L71.2,932.6z M847.8,551.1L554.5,844.4c-2.2,2.2-4,4.7-5.4,7.3H409.7l438.1-438.1L847.8,551.1L847.8,551.1z M928.7,932.6H828.1V832h100.6V932.6z M797.5,770.8c-16.9,0-30.6,13.7-30.6,30.6v50.3h-133l213.9-214v133.1H797.5L797.5,770.8z M847.8,327L323.1,851.7h-90.1V814l577-577h37.7V327z"/></g>
</svg>